<svg xmlns="http://www.w3.org/2000/svg" xmlns:xlink="http://www.w3.org/1999/xlink" width="1440" zoomAndPan="magnify" viewBox="0 0 1440 809.999993" height="809.999993" preserveAspectRatio="xMidYMid meet" version="1.0"><defs><g/></defs><path fill="rgb(32.939148%, 0.779724%, 0.779724%)" d="M 684.558594 146.371094 L 563.429688 610.390625 C 564.765625 610.84375 566.125 611.199219 567.484375 611.554688 L 775.890625 665.957031 L 897.046875 201.839844 L 684.558594 146.371094 M 932.015625 210.96875 L 897.046875 201.839844 L 775.917969 665.859375 L 776.695312 666.0625 C 833.230469 680.820312 894.914062 647.628906 913.703125 592.34375 L 1000.480469 338.222656 C 1019.34375 283.058594 988.550781 225.726562 932.015625 210.96875 M 654.445312 138.511719 C 597.910156 123.753906 543.027344 158.71875 532.492188 216.160156 L 483.988281 480.273438 C 473.714844 536.328125 509.300781 593.976562 563.527344 610.417969 L 684.65625 146.398438 L 654.445312 138.511719 " fill-opacity="1" fill-rule="nonzero"/><path fill="rgb(98.81897%, 78.42865%, 20.779419%)" d="M 681.132812 142.945312 L 560.003906 606.964844 C 561.339844 607.417969 562.699219 607.773438 564.058594 608.128906 L 772.464844 662.53125 L 893.617188 198.414062 L 681.132812 142.945312 M 928.589844 207.542969 L 893.617188 198.414062 L 772.492188 662.433594 L 773.265625 662.636719 C 829.804688 677.394531 891.488281 644.203125 910.277344 588.917969 L 997.054688 334.796875 C 1015.917969 279.632812 985.125 222.300781 928.589844 207.542969 M 651.019531 135.085938 C 594.484375 120.328125 539.597656 155.292969 529.066406 212.734375 L 480.5625 476.847656 C 470.289062 532.902344 505.871094 590.550781 560.101562 606.992188 L 681.230469 142.972656 L 651.019531 135.085938 " fill-opacity="1" fill-rule="nonzero"/><g fill="rgb(0%, 0%, 0%)" fill-opacity="1"><g transform="translate(563.757338, 445.551122)"><g><path d="M 39.050781 -47.132812 C 34.835938 -47.132812 31.394531 -46.1875 28.210938 -44.46875 L 23.050781 -39.394531 L 24.253906 -45.929688 L 8.773438 -45.929688 L 0.6875 0 L 16.171875 0 L 19.867188 -21.332031 C 21.761719 -31.738281 25.632812 -36.640625 30.535156 -36.640625 C 35.09375 -36.640625 36.640625 -34.0625 36.640625 -30.191406 C 36.640625 -28.554688 36.296875 -26.0625 35.78125 -23.050781 L 31.652344 0 L 47.132812 0 L 51.867188 -26.492188 C 52.554688 -30.363281 52.898438 -32.941406 52.898438 -35.351562 C 52.898438 -42.144531 48.425781 -47.132812 39.050781 -47.132812 Z M 39.050781 -47.132812 "/></g></g></g><g fill="rgb(0%, 0%, 0%)" fill-opacity="1"><g transform="translate(618.188936, 445.551122)"><g><path d="M 30.191406 -46.789062 C 13.246094 -46.789062 1.804688 -34.578125 1.804688 -18.492188 C 1.804688 -4.644531 11.007812 1.203125 23.394531 1.203125 C 36.726562 1.203125 45.070312 -4.988281 49.199219 -16.859375 L 33.976562 -16.859375 C 32.253906 -11.871094 28.984375 -9.289062 24.597656 -9.289062 C 20.902344 -9.289062 18.148438 -12.472656 18.148438 -18.320312 C 18.148438 -27.609375 22.105469 -36.296875 29.070312 -36.296875 C 33.371094 -36.296875 36.125 -33.628906 36.125 -28.039062 L 51.089844 -28.039062 C 51.089844 -38.792969 44.726562 -46.789062 30.191406 -46.789062 Z M 30.191406 -46.789062 "/></g></g></g><g fill="rgb(0%, 0%, 0%)" fill-opacity="1"><g transform="translate(669.438906, 445.551122)"><g><path d="M 30.535156 -47.132812 C 11.699219 -47.132812 1.976562 -34.0625 1.976562 -19.265625 C 1.976562 -7.140625 9.632812 1.203125 24.511719 1.203125 C 43.351562 1.203125 53.070312 -11.871094 53.070312 -26.664062 C 53.070312 -38.792969 45.414062 -47.132812 30.535156 -47.132812 Z M 25.632812 -9.289062 C 20.644531 -9.289062 18.320312 -13.589844 18.320312 -19.609375 C 18.320312 -28.296875 22.019531 -36.640625 29.417969 -36.640625 C 34.40625 -36.640625 36.726562 -32.339844 36.726562 -26.320312 C 36.726562 -17.632812 33.027344 -9.289062 25.632812 -9.289062 Z M 25.632812 -9.289062 "/></g></g></g><g fill="rgb(0%, 0%, 0%)" fill-opacity="1"><g transform="translate(723.505663, 445.551122)"><g><path d="M 66.660156 -47.132812 C 62.445312 -47.132812 59.089844 -46.445312 55.390625 -43.78125 L 51.003906 -38.878906 C 49.800781 -43.609375 45.585938 -47.132812 38.101562 -47.132812 C 33.890625 -47.132812 30.878906 -46.1875 27.695312 -44.46875 L 23.136719 -39.566406 L 24.253906 -45.929688 L 8.773438 -45.929688 L 0.6875 0 L 16.171875 0 L 20.472656 -24.253906 C 21.847656 -32.082031 25.460938 -36.640625 29.589844 -36.640625 C 33.371094 -36.640625 35.007812 -34.40625 35.007812 -30.535156 C 35.007812 -28.640625 34.578125 -25.804688 34.234375 -23.394531 L 30.105469 0 L 45.585938 0 L 49.886719 -24.253906 C 51.175781 -31.738281 55.21875 -36.640625 59.519531 -36.640625 C 62.789062 -36.640625 64.421875 -34.40625 64.421875 -30.535156 C 64.421875 -28.46875 63.992188 -25.460938 63.648438 -23.394531 L 59.519531 0 L 75.003906 0 L 79.734375 -26.835938 C 80.421875 -30.621094 80.851562 -33.371094 80.851562 -35.695312 C 80.851562 -41.886719 76.636719 -47.132812 66.660156 -47.132812 Z M 66.660156 -47.132812 "/></g></g></g><g fill="rgb(0%, 0%, 0%)" fill-opacity="1"><g transform="translate(805.712125, 445.551122)"><g><path d="M 54.273438 -45.929688 L 38.792969 -45.929688 L 35.09375 -24.597656 C 33.199219 -14.191406 29.332031 -9.289062 24.425781 -9.289062 C 19.867188 -9.289062 18.320312 -11.871094 18.320312 -15.738281 C 18.320312 -17.375 18.664062 -19.867188 19.179688 -22.878906 L 23.308594 -45.929688 L 7.828125 -45.929688 L 3.097656 -19.4375 C 2.410156 -15.566406 2.0625 -12.988281 2.0625 -10.578125 C 2.0625 -3.785156 6.535156 1.203125 15.914062 1.203125 C 20.125 1.203125 23.566406 0.257812 26.75 -1.460938 L 31.910156 -6.535156 L 30.707031 0 L 46.1875 0 Z M 54.273438 -45.929688 "/></g></g></g><g fill="rgb(0%, 0%, 0%)" fill-opacity="1"><g transform="translate(859.799767, 445.551122)"><g><path d="M 66.660156 -47.132812 C 62.445312 -47.132812 59.089844 -46.445312 55.390625 -43.78125 L 51.003906 -38.878906 C 49.800781 -43.609375 45.585938 -47.132812 38.101562 -47.132812 C 33.890625 -47.132812 30.878906 -46.1875 27.695312 -44.46875 L 23.136719 -39.566406 L 24.253906 -45.929688 L 8.773438 -45.929688 L 0.6875 0 L 16.171875 0 L 20.472656 -24.253906 C 21.847656 -32.082031 25.460938 -36.640625 29.589844 -36.640625 C 33.371094 -36.640625 35.007812 -34.40625 35.007812 -30.535156 C 35.007812 -28.640625 34.578125 -25.804688 34.234375 -23.394531 L 30.105469 0 L 45.585938 0 L 49.886719 -24.253906 C 51.175781 -31.738281 55.21875 -36.640625 59.519531 -36.640625 C 62.789062 -36.640625 64.421875 -34.40625 64.421875 -30.535156 C 64.421875 -28.46875 63.992188 -25.460938 63.648438 -23.394531 L 59.519531 0 L 75.003906 0 L 79.734375 -26.835938 C 80.421875 -30.621094 80.851562 -33.371094 80.851562 -35.695312 C 80.851562 -41.886719 76.636719 -47.132812 66.660156 -47.132812 Z M 66.660156 -47.132812 "/></g></g></g><g fill="rgb(0%, 0%, 0%)" fill-opacity="1"><g transform="translate(511.453727, 444.794317)"><g><path d="M 53.460938 -174.566406 C 37.191406 -174.566406 29.289062 -162.480469 29.289062 -151.089844 C 29.289062 -140.164062 36.492188 -133.65625 48.347656 -133.65625 C 64.851562 -133.65625 72.523438 -145.976562 72.523438 -157.132812 C 72.523438 -168.058594 65.316406 -174.566406 53.460938 -174.566406 Z M 43.699219 0 L 65.78125 -124.125 L 23.941406 -124.125 L 1.859375 0 Z M 43.699219 0 "/></g></g></g><g fill="rgb(0%, 0%, 0%)" fill-opacity="1"><g transform="translate(578.192746, 380.067143)"><g><path d="M -0.925781 0 L 2.09375 0 L 5.164062 -5.265625 L 15.816406 -5.265625 L 16.453125 0 L 19.316406 0 L 15.851562 -24.242188 L 13.777344 -24.242188 Z M 6.640625 -7.753906 L 14 -20.246094 L 15.476562 -7.753906 Z M 6.640625 -7.753906 "/></g></g></g><g fill="rgb(0%, 0%, 0%)" fill-opacity="1"><g transform="translate(606.45489, 380.067143)"><g><path d="M 11.167969 0.34375 C 15.167969 0.34375 18.441406 -1.820312 20.023438 -4.304688 L 19.007812 0 L 21.273438 0 L 24.105469 -12.265625 L 15.988281 -12.265625 L 15.492188 -10.121094 L 21.066406 -10.242188 C 19.78125 -5.128906 15.578125 -2.195312 11.359375 -2.195312 C 5.628906 -2.195312 4.410156 -6.742188 5.628906 -12.042969 C 6.863281 -17.34375 10.414062 -22.082031 16.265625 -22.082031 C 19.558594 -22.082031 21.6875 -20.433594 22.390625 -17.226562 L 25.015625 -18.066406 C 24.105469 -22.25 21.152344 -24.636719 16.503906 -24.636719 C 9.246094 -24.636719 4.546875 -18.992188 3.019531 -12.371094 C 1.40625 -5.488281 3.601562 0.34375 11.167969 0.34375 Z M 11.167969 0.34375 "/></g></g></g><g fill="rgb(0%, 0%, 0%)" fill-opacity="1"><g transform="translate(638.197703, 380.067143)"><g><path d="M 9.832031 -25.941406 L 12.679688 -25.941406 L 16.332031 -29.132812 L 18.425781 -25.941406 L 21.101562 -25.941406 L 16.863281 -32.03125 Z M 1.714844 0 L 17.429688 0 L 17.980469 -2.488281 L 5.007812 -2.488281 L 6.964844 -10.996094 L 18.238281 -10.996094 L 18.785156 -13.277344 L 7.515625 -13.277344 L 9.488281 -21.890625 L 22.457031 -21.890625 L 23.007812 -24.242188 L 7.308594 -24.242188 Z M 1.714844 0 "/></g></g></g><g fill="rgb(0%, 0%, 0%)" fill-opacity="1"><g transform="translate(665.413946, 380.067143)"><g><path d="M 1.714844 0 L 4.445312 0 L 9.332031 -21.101562 L 14.941406 0 L 18.785156 0 L 24.363281 -24.242188 L 21.6875 -24.242188 L 16.777344 -3.175781 L 11.082031 -24.242188 L 7.308594 -24.242188 Z M 1.714844 0 "/></g></g></g><g fill="rgb(0%, 0%, 0%)" fill-opacity="1"><g transform="translate(695.716486, 380.067143)"><g><path d="M 11.253906 0.34375 C 15.664062 0.34375 19.644531 -1.851562 22.421875 -6.023438 L 20.140625 -7.34375 C 17.945312 -3.6875 14.925781 -2.160156 11.445312 -2.160156 C 5.695312 -2.160156 4.496094 -6.742188 5.714844 -12.042969 C 6.949219 -17.34375 10.5 -22.183594 16.367188 -22.183594 C 19.660156 -22.183594 22.183594 -20.914062 22.507812 -17.277344 L 25.117188 -18.066406 C 24.636719 -22.457031 21.1875 -24.636719 16.589844 -24.636719 C 9.214844 -24.636719 4.632812 -18.992188 3.105469 -12.371094 C 1.492188 -5.488281 3.6875 0.34375 11.253906 0.34375 Z M 11.253906 0.34375 "/></g></g></g><g fill="rgb(0%, 0%, 0%)" fill-opacity="1"><g transform="translate(726.104746, 380.067143)"><g><path d="M 1.714844 0 L 4.445312 0 L 10.035156 -24.242188 L 7.308594 -24.242188 Z M 1.714844 0 "/></g></g></g><g fill="rgb(0%, 0%, 0%)" fill-opacity="1"><g transform="translate(742.073151, 380.067143)"><g><path d="M -0.925781 0 L 2.09375 0 L 5.164062 -5.265625 L 15.816406 -5.265625 L 16.453125 0 L 19.316406 0 L 15.851562 -24.242188 L 13.777344 -24.242188 Z M 6.640625 -7.753906 L 14 -20.246094 L 15.476562 -7.753906 Z M 6.640625 -7.753906 "/></g></g></g><g fill="rgb(0%, 0%, 0%)" fill-opacity="1"><g transform="translate(770.322094, 380.067143)"><g/></g></g><g fill="rgb(0%, 0%, 0%)" fill-opacity="1"><g transform="translate(565.286162, 492.776259)"><g><path d="M 7.792969 0 L 9.714844 0 L 9.714844 -18.351562 L 16.539062 -18.351562 L 16.539062 -19.839844 L 0.984375 -19.839844 L 0.984375 -18.351562 L 7.792969 -18.351562 Z M 7.792969 0 "/></g></g></g><g fill="rgb(0%, 0%, 0%)" fill-opacity="1"><g transform="translate(586.102449, 492.776259)"><g><path d="M 2.441406 0 L 4.199219 0 L 4.199219 -7.273438 C 4.199219 -10.613281 5.574219 -12.652344 8.171875 -12.652344 C 8.859375 -12.652344 9.464844 -12.511719 9.925781 -12.105469 L 10.644531 -13.664062 C 10.152344 -14 9.4375 -14.320312 8.453125 -14.320312 C 6.640625 -14.320312 4.96875 -13.226562 4.226562 -11.5 L 4.226562 -14.027344 L 2.441406 -14.027344 Z M 2.441406 0 "/></g></g></g><g fill="rgb(0%, 0%, 0%)" fill-opacity="1"><g transform="translate(600.515991, 492.776259)"><g><path d="M 5.574219 0.28125 C 7.652344 0.28125 9.660156 -0.6875 10.644531 -2.878906 L 10.644531 0 L 12.160156 0 L 12.160156 -8.621094 C 12.160156 -12.046875 10.320312 -14.320312 6.808594 -14.320312 C 4.605469 -14.320312 2.90625 -13.367188 1.671875 -11.640625 L 2.933594 -10.644531 C 3.621094 -11.585938 4.859375 -12.792969 6.964844 -12.792969 C 9.6875 -12.792969 10.585938 -10.785156 10.585938 -7.933594 L 7.46875 -7.933594 C 3.273438 -7.933594 1.152344 -6.558594 1.152344 -3.792969 C 1.152344 -1.234375 2.992188 0.28125 5.574219 0.28125 Z M 5.757812 -1.207031 C 4.253906 -1.207031 2.992188 -1.894531 2.992188 -3.761719 C 2.992188 -5.871094 4.605469 -6.558594 7.679688 -6.558594 L 10.585938 -6.558594 C 10.585938 -4.171875 8.859375 -1.207031 5.757812 -1.207031 Z M 5.757812 -1.207031 "/></g></g></g><g fill="rgb(0%, 0%, 0%)" fill-opacity="1"><g transform="translate(618.088778, 492.776259)"><g><path d="M 2.441406 0 L 4.199219 0 L 4.199219 -7.1875 C 4.199219 -10.925781 6.09375 -12.820312 8.367188 -12.820312 C 11.007812 -12.820312 11.667969 -10.347656 11.667969 -8.398438 L 11.667969 0 L 13.421875 0 L 13.421875 -8.535156 C 13.421875 -11.667969 12.074219 -14.265625 8.832031 -14.265625 C 6.613281 -14.265625 5.082031 -13.085938 4.199219 -11.386719 L 4.199219 -14.027344 L 2.441406 -14.027344 Z M 2.441406 0 "/></g></g></g><g fill="rgb(0%, 0%, 0%)" fill-opacity="1"><g transform="translate(636.953347, 492.776259)"><g><path d="M 6.234375 0.28125 C 8.621094 0.28125 10.894531 -1.09375 10.894531 -3.917969 C 10.894531 -9.054688 3.214844 -7.246094 3.214844 -10.753906 C 3.214844 -12.019531 4.226562 -12.890625 5.839844 -12.890625 C 7.328125 -12.890625 8.425781 -12.160156 9.054688 -10.839844 L 10.320312 -11.585938 C 9.519531 -13.199219 7.988281 -14.320312 5.898438 -14.320312 C 3.59375 -14.320312 1.644531 -12.972656 1.644531 -10.558594 C 1.644531 -5.839844 9.195312 -7.765625 9.195312 -3.621094 C 9.195312 -1.921875 7.90625 -1.152344 6.332031 -1.152344 C 4.421875 -1.152344 3.214844 -2.304688 2.710938 -3.917969 L 1.179688 -3.074219 C 1.8125 -1.292969 3.679688 0.28125 6.234375 0.28125 Z M 6.234375 0.28125 "/></g></g></g><g fill="rgb(0%, 0%, 0%)" fill-opacity="1"><g transform="translate(652.307643, 492.776259)"><g><path d="M 3.046875 0 L 4.773438 0 L 4.773438 -12.59375 L 9 -12.59375 L 9 -14.027344 L 4.773438 -14.027344 L 4.773438 -16.441406 C 4.773438 -17.972656 5.601562 -18.6875 6.78125 -18.6875 C 7.328125 -18.6875 7.933594 -18.519531 8.566406 -18.226562 L 8.917969 -19.617188 C 8.285156 -19.925781 7.511719 -20.136719 6.667969 -20.136719 C 4.691406 -20.136719 3.046875 -18.984375 3.046875 -16.511719 L 3.046875 -14.027344 L 0.492188 -14.027344 L 0.492188 -12.59375 L 3.046875 -12.59375 Z M 3.046875 0 "/></g></g></g><g fill="rgb(0%, 0%, 0%)" fill-opacity="1"><g transform="translate(665.106458, 492.776259)"><g><path d="M 7.792969 0.28125 C 11.640625 0.28125 14.351562 -3.046875 14.351562 -7.046875 C 14.351562 -11.035156 11.640625 -14.320312 7.792969 -14.320312 C 3.945312 -14.320312 1.320312 -11.035156 1.320312 -7.046875 C 1.320312 -3.046875 3.945312 0.28125 7.792969 0.28125 Z M 7.820312 -1.152344 C 4.605469 -1.152344 3.074219 -4.085938 3.074219 -7.046875 C 3.074219 -9.984375 4.605469 -12.890625 7.847656 -12.890625 C 11.105469 -12.890625 12.59375 -9.984375 12.59375 -7.046875 C 12.59375 -4.140625 11.105469 -1.152344 7.820312 -1.152344 Z M 7.820312 -1.152344 "/></g></g></g><g fill="rgb(0%, 0%, 0%)" fill-opacity="1"><g transform="translate(684.08336, 492.776259)"><g><path d="M 2.441406 0 L 4.199219 0 L 4.199219 -7.273438 C 4.199219 -10.613281 5.574219 -12.652344 8.171875 -12.652344 C 8.859375 -12.652344 9.464844 -12.511719 9.925781 -12.105469 L 10.644531 -13.664062 C 10.152344 -14 9.4375 -14.320312 8.453125 -14.320312 C 6.640625 -14.320312 4.96875 -13.226562 4.226562 -11.5 L 4.226562 -14.027344 L 2.441406 -14.027344 Z M 2.441406 0 "/></g></g></g><g fill="rgb(0%, 0%, 0%)" fill-opacity="1"><g transform="translate(698.496907, 492.776259)"><g><path d="M 2.441406 0 L 4.226562 0 L 4.226562 -7.21875 C 4.226562 -9.925781 5.519531 -12.890625 7.960938 -12.890625 C 10.53125 -12.890625 11.105469 -10.433594 11.105469 -8.453125 L 11.105469 0 L 12.890625 0 L 12.890625 -7.792969 C 12.890625 -10.207031 14.183594 -12.890625 16.597656 -12.890625 C 19.179688 -12.890625 19.785156 -10.347656 19.785156 -8.398438 L 19.785156 0 L 21.566406 0 L 21.566406 -8.535156 C 21.566406 -11.710938 20.21875 -14.320312 16.765625 -14.320312 C 14.757812 -14.320312 13.3125 -13.199219 12.484375 -11.273438 C 11.851562 -13.367188 10.152344 -14.320312 8.117188 -14.320312 C 6.234375 -14.320312 4.71875 -13.058594 4.226562 -11.667969 L 4.226562 -14.027344 L 2.441406 -14.027344 Z M 2.441406 0 "/></g></g></g><g fill="rgb(0%, 0%, 0%)" fill-opacity="1"><g transform="translate(725.505313, 492.776259)"><g><path d="M 5.574219 0.28125 C 7.652344 0.28125 9.660156 -0.6875 10.644531 -2.878906 L 10.644531 0 L 12.160156 0 L 12.160156 -8.621094 C 12.160156 -12.046875 10.320312 -14.320312 6.808594 -14.320312 C 4.605469 -14.320312 2.90625 -13.367188 1.671875 -11.640625 L 2.933594 -10.644531 C 3.621094 -11.585938 4.859375 -12.792969 6.964844 -12.792969 C 9.6875 -12.792969 10.585938 -10.785156 10.585938 -7.933594 L 7.46875 -7.933594 C 3.273438 -7.933594 1.152344 -6.558594 1.152344 -3.792969 C 1.152344 -1.234375 2.992188 0.28125 5.574219 0.28125 Z M 5.757812 -1.207031 C 4.253906 -1.207031 2.992188 -1.894531 2.992188 -3.761719 C 2.992188 -5.871094 4.605469 -6.558594 7.679688 -6.558594 L 10.585938 -6.558594 C 10.585938 -4.171875 8.859375 -1.207031 5.757812 -1.207031 Z M 5.757812 -1.207031 "/></g></g></g><g fill="rgb(0%, 0%, 0%)" fill-opacity="1"><g transform="translate(743.078096, 492.776259)"><g><path d="M 2.441406 0 L 4.199219 0 L 4.199219 -7.1875 C 4.199219 -10.925781 6.09375 -12.820312 8.367188 -12.820312 C 11.007812 -12.820312 11.667969 -10.347656 11.667969 -8.398438 L 11.667969 0 L 13.421875 0 L 13.421875 -8.535156 C 13.421875 -11.667969 12.074219 -14.265625 8.832031 -14.265625 C 6.613281 -14.265625 5.082031 -13.085938 4.199219 -11.386719 L 4.199219 -14.027344 L 2.441406 -14.027344 Z M 2.441406 0 "/></g></g></g><g fill="rgb(0%, 0%, 0%)" fill-opacity="1"><g transform="translate(761.94266, 492.776259)"><g><path d="M 11.472656 -19.839844 L 11.472656 -11.992188 C 10.558594 -13.367188 9.167969 -14.320312 6.992188 -14.320312 C 3.480469 -14.320312 1.460938 -11.066406 1.460938 -7.019531 C 1.460938 -2.992188 3.480469 0.28125 6.992188 0.28125 C 9.253906 0.28125 10.546875 -0.730469 11.472656 -2.050781 L 11.472656 0 L 13.226562 0 L 13.226562 -19.839844 Z M 7.441406 -1.152344 C 4.519531 -1.152344 3.273438 -4.03125 3.273438 -7.019531 C 3.273438 -9.984375 4.519531 -12.890625 7.441406 -12.890625 C 10.433594 -12.890625 11.613281 -9.984375 11.613281 -7.019531 C 11.613281 -4.03125 10.433594 -1.152344 7.441406 -1.152344 Z M 7.441406 -1.152344 "/></g></g></g><g fill="rgb(0%, 0%, 0%)" fill-opacity="1"><g transform="translate(780.947645, 492.776259)"><g><path d="M 7.792969 0.28125 C 11.640625 0.28125 14.351562 -3.046875 14.351562 -7.046875 C 14.351562 -11.035156 11.640625 -14.320312 7.792969 -14.320312 C 3.945312 -14.320312 1.320312 -11.035156 1.320312 -7.046875 C 1.320312 -3.046875 3.945312 0.28125 7.792969 0.28125 Z M 7.820312 -1.152344 C 4.605469 -1.152344 3.074219 -4.085938 3.074219 -7.046875 C 3.074219 -9.984375 4.605469 -12.890625 7.847656 -12.890625 C 11.105469 -12.890625 12.59375 -9.984375 12.59375 -7.046875 C 12.59375 -4.140625 11.105469 -1.152344 7.820312 -1.152344 Z M 7.820312 -1.152344 "/></g></g></g><g fill="rgb(0%, 0%, 0%)" fill-opacity="1"><g transform="translate(799.924538, 492.776259)"><g/></g></g><g fill="rgb(0%, 0%, 0%)" fill-opacity="1"><g transform="translate(810.996292, 492.776259)"><g><path d="M 5.574219 0.28125 C 7.652344 0.28125 9.660156 -0.6875 10.644531 -2.878906 L 10.644531 0 L 12.160156 0 L 12.160156 -8.621094 C 12.160156 -12.046875 10.320312 -14.320312 6.808594 -14.320312 C 4.605469 -14.320312 2.90625 -13.367188 1.671875 -11.640625 L 2.933594 -10.644531 C 3.621094 -11.585938 4.859375 -12.792969 6.964844 -12.792969 C 9.6875 -12.792969 10.585938 -10.785156 10.585938 -7.933594 L 7.46875 -7.933594 C 3.273438 -7.933594 1.152344 -6.558594 1.152344 -3.792969 C 1.152344 -1.234375 2.992188 0.28125 5.574219 0.28125 Z M 5.757812 -1.207031 C 4.253906 -1.207031 2.992188 -1.894531 2.992188 -3.761719 C 2.992188 -5.871094 4.605469 -6.558594 7.679688 -6.558594 L 10.585938 -6.558594 C 10.585938 -4.171875 8.859375 -1.207031 5.757812 -1.207031 Z M 5.757812 -1.207031 "/></g></g></g><g fill="rgb(0%, 0%, 0%)" fill-opacity="1"><g transform="translate(565.286162, 523.810616)"><g><path d="M 2.441406 0 L 4.199219 0 L 4.199219 -7.273438 C 4.199219 -10.613281 5.574219 -12.652344 8.171875 -12.652344 C 8.859375 -12.652344 9.464844 -12.511719 9.925781 -12.105469 L 10.644531 -13.664062 C 10.152344 -14 9.4375 -14.320312 8.453125 -14.320312 C 6.640625 -14.320312 4.96875 -13.226562 4.226562 -11.5 L 4.226562 -14.027344 L 2.441406 -14.027344 Z M 2.441406 0 "/></g></g></g><g fill="rgb(0%, 0%, 0%)" fill-opacity="1"><g transform="translate(579.699705, 523.810616)"><g><path d="M 7.539062 0.167969 C 9.746094 0.167969 11.273438 -0.433594 12.792969 -1.921875 L 11.585938 -2.851562 C 10.460938 -1.671875 9.195312 -1.347656 7.511719 -1.347656 C 4.632812 -1.347656 3.160156 -3.734375 3.242188 -6.417969 L 13.058594 -6.417969 C 13.085938 -6.667969 13.113281 -7.105469 13.113281 -7.414062 C 13.113281 -10.671875 11.765625 -14.210938 7.300781 -14.210938 C 3.398438 -14.210938 1.402344 -10.726562 1.402344 -6.9375 C 1.402344 -3.101562 3.398438 0.167969 7.539062 0.167969 Z M 3.242188 -7.933594 C 3.3125 -10.460938 4.605469 -12.761719 7.300781 -12.761719 C 10.460938 -12.761719 11.445312 -10.234375 11.445312 -7.933594 Z M 3.242188 -7.933594 "/></g></g></g><g fill="rgb(0%, 0%, 0%)" fill-opacity="1"><g transform="translate(597.469069, 523.810616)"><g><path d="M 5.574219 0.28125 C 7.652344 0.28125 9.660156 -0.6875 10.644531 -2.878906 L 10.644531 0 L 12.160156 0 L 12.160156 -8.621094 C 12.160156 -12.046875 10.320312 -14.320312 6.808594 -14.320312 C 4.605469 -14.320312 2.90625 -13.367188 1.671875 -11.640625 L 2.933594 -10.644531 C 3.621094 -11.585938 4.859375 -12.792969 6.964844 -12.792969 C 9.6875 -12.792969 10.585938 -10.785156 10.585938 -7.933594 L 7.46875 -7.933594 C 3.273438 -7.933594 1.152344 -6.558594 1.152344 -3.792969 C 1.152344 -1.234375 2.992188 0.28125 5.574219 0.28125 Z M 5.757812 -1.207031 C 4.253906 -1.207031 2.992188 -1.894531 2.992188 -3.761719 C 2.992188 -5.871094 4.605469 -6.558594 7.679688 -6.558594 L 10.585938 -6.558594 C 10.585938 -4.171875 8.859375 -1.207031 5.757812 -1.207031 Z M 5.757812 -1.207031 "/></g></g></g><g fill="rgb(0%, 0%, 0%)" fill-opacity="1"><g transform="translate(615.041858, 523.810616)"><g><path d="M 4.519531 0.28125 C 5.210938 0.28125 5.871094 0.140625 6.234375 0 L 6.234375 -1.375 C 5.953125 -1.320312 5.351562 -1.234375 4.773438 -1.234375 C 4.058594 -1.234375 4.199219 -2.359375 4.199219 -1.980469 L 4.199219 -19.839844 L 2.414062 -19.839844 L 2.414062 -2.851562 C 2.414062 -1.347656 2.273438 0.28125 4.519531 0.28125 Z M 4.519531 0.28125 "/></g></g></g><g fill="rgb(0%, 0%, 0%)" fill-opacity="1"><g transform="translate(625.425598, 523.810616)"><g><path d="M 2.304688 -17.257812 L 4.394531 -17.257812 L 4.394531 -19.839844 L 2.304688 -19.839844 Z M 2.472656 0 L 4.226562 0 L 4.226562 -14.027344 L 2.472656 -14.027344 Z M 2.472656 0 "/></g></g></g><g fill="rgb(0%, 0%, 0%)" fill-opacity="1"><g transform="translate(635.430233, 523.810616)"><g><path d="M 11.472656 -19.839844 L 11.472656 -11.992188 C 10.558594 -13.367188 9.167969 -14.320312 6.992188 -14.320312 C 3.480469 -14.320312 1.460938 -11.066406 1.460938 -7.019531 C 1.460938 -2.992188 3.480469 0.28125 6.992188 0.28125 C 9.253906 0.28125 10.546875 -0.730469 11.472656 -2.050781 L 11.472656 0 L 13.226562 0 L 13.226562 -19.839844 Z M 7.441406 -1.152344 C 4.519531 -1.152344 3.273438 -4.03125 3.273438 -7.019531 C 3.273438 -9.984375 4.519531 -12.890625 7.441406 -12.890625 C 10.433594 -12.890625 11.613281 -9.984375 11.613281 -7.019531 C 11.613281 -4.03125 10.433594 -1.152344 7.441406 -1.152344 Z M 7.441406 -1.152344 "/></g></g></g><g fill="rgb(0%, 0%, 0%)" fill-opacity="1"><g transform="translate(654.435209, 523.810616)"><g><path d="M 5.574219 0.28125 C 7.652344 0.28125 9.660156 -0.6875 10.644531 -2.878906 L 10.644531 0 L 12.160156 0 L 12.160156 -8.621094 C 12.160156 -12.046875 10.320312 -14.320312 6.808594 -14.320312 C 4.605469 -14.320312 2.90625 -13.367188 1.671875 -11.640625 L 2.933594 -10.644531 C 3.621094 -11.585938 4.859375 -12.792969 6.964844 -12.792969 C 9.6875 -12.792969 10.585938 -10.785156 10.585938 -7.933594 L 7.46875 -7.933594 C 3.273438 -7.933594 1.152344 -6.558594 1.152344 -3.792969 C 1.152344 -1.234375 2.992188 0.28125 5.574219 0.28125 Z M 5.757812 -1.207031 C 4.253906 -1.207031 2.992188 -1.894531 2.992188 -3.761719 C 2.992188 -5.871094 4.605469 -6.558594 7.679688 -6.558594 L 10.585938 -6.558594 C 10.585938 -4.171875 8.859375 -1.207031 5.757812 -1.207031 Z M 5.757812 -1.207031 "/></g></g></g><g fill="rgb(0%, 0%, 0%)" fill-opacity="1"><g transform="translate(672.008, 523.810616)"><g><path d="M 11.472656 -19.839844 L 11.472656 -11.992188 C 10.558594 -13.367188 9.167969 -14.320312 6.992188 -14.320312 C 3.480469 -14.320312 1.460938 -11.066406 1.460938 -7.019531 C 1.460938 -2.992188 3.480469 0.28125 6.992188 0.28125 C 9.253906 0.28125 10.546875 -0.730469 11.472656 -2.050781 L 11.472656 0 L 13.226562 0 L 13.226562 -19.839844 Z M 7.441406 -1.152344 C 4.519531 -1.152344 3.273438 -4.03125 3.273438 -7.019531 C 3.273438 -9.984375 4.519531 -12.890625 7.441406 -12.890625 C 10.433594 -12.890625 11.613281 -9.984375 11.613281 -7.019531 C 11.613281 -4.03125 10.433594 -1.152344 7.441406 -1.152344 Z M 7.441406 -1.152344 "/></g></g></g><g fill="rgb(0%, 0%, 0%)" fill-opacity="1"><g transform="translate(691.012976, 523.810616)"><g><path d="M 7.539062 0.167969 C 9.746094 0.167969 11.273438 -0.433594 12.792969 -1.921875 L 11.585938 -2.851562 C 10.460938 -1.671875 9.195312 -1.347656 7.511719 -1.347656 C 4.632812 -1.347656 3.160156 -3.734375 3.242188 -6.417969 L 13.058594 -6.417969 C 13.085938 -6.667969 13.113281 -7.105469 13.113281 -7.414062 C 13.113281 -10.671875 11.765625 -14.210938 7.300781 -14.210938 C 3.398438 -14.210938 1.402344 -10.726562 1.402344 -6.9375 C 1.402344 -3.101562 3.398438 0.167969 7.539062 0.167969 Z M 3.242188 -7.933594 C 3.3125 -10.460938 4.605469 -12.761719 7.300781 -12.761719 C 10.460938 -12.761719 11.445312 -10.234375 11.445312 -7.933594 Z M 3.242188 -7.933594 "/></g></g></g><g fill="rgb(0%, 0%, 0%)" fill-opacity="1"><g transform="translate(708.782343, 523.810616)"><g/></g></g><g fill="rgb(0%, 0%, 0%)" fill-opacity="1"><g transform="translate(719.854097, 523.810616)"><g><path d="M 5.574219 0.28125 C 7.652344 0.28125 9.660156 -0.6875 10.644531 -2.878906 L 10.644531 0 L 12.160156 0 L 12.160156 -8.621094 C 12.160156 -12.046875 10.320312 -14.320312 6.808594 -14.320312 C 4.605469 -14.320312 2.90625 -13.367188 1.671875 -11.640625 L 2.933594 -10.644531 C 3.621094 -11.585938 4.859375 -12.792969 6.964844 -12.792969 C 9.6875 -12.792969 10.585938 -10.785156 10.585938 -7.933594 L 7.46875 -7.933594 C 3.273438 -7.933594 1.152344 -6.558594 1.152344 -3.792969 C 1.152344 -1.234375 2.992188 0.28125 5.574219 0.28125 Z M 5.757812 -1.207031 C 4.253906 -1.207031 2.992188 -1.894531 2.992188 -3.761719 C 2.992188 -5.871094 4.605469 -6.558594 7.679688 -6.558594 L 10.585938 -6.558594 C 10.585938 -4.171875 8.859375 -1.207031 5.757812 -1.207031 Z M 5.757812 -1.207031 "/></g></g></g><g fill="rgb(0%, 0%, 0%)" fill-opacity="1"><g transform="translate(737.42688, 523.810616)"><g><path d="M 6.066406 0.28125 C 6.910156 0.28125 7.539062 0.140625 7.792969 0.0273438 L 7.792969 -1.433594 C 7.359375 -1.234375 6.9375 -1.125 6.527344 -1.125 C 5.460938 -1.125 4.691406 -1.921875 4.691406 -3.511719 L 4.691406 -12.59375 L 8.257812 -12.59375 L 8.257812 -14.027344 L 4.691406 -14.027344 L 4.691406 -18.957031 L 2.933594 -17.117188 L 2.933594 -14.027344 L 0.6875 -14.027344 L 0.6875 -12.59375 L 2.933594 -12.59375 L 2.933594 -3.679688 C 2.933594 -1.320312 3.652344 0.28125 6.066406 0.28125 Z M 6.066406 0.28125 "/></g></g></g><g fill="rgb(0%, 0%, 0%)" fill-opacity="1"><g transform="translate(749.902745, 523.810616)"><g><path d="M 2.441406 0 L 4.199219 0 L 4.199219 -7.273438 C 4.199219 -10.613281 5.574219 -12.652344 8.171875 -12.652344 C 8.859375 -12.652344 9.464844 -12.511719 9.925781 -12.105469 L 10.644531 -13.664062 C 10.152344 -14 9.4375 -14.320312 8.453125 -14.320312 C 6.640625 -14.320312 4.96875 -13.226562 4.226562 -11.5 L 4.226562 -14.027344 L 2.441406 -14.027344 Z M 2.441406 0 "/></g></g></g><g fill="rgb(0%, 0%, 0%)" fill-opacity="1"><g transform="translate(764.316292, 523.810616)"><g><path d="M 5.574219 0.28125 C 7.652344 0.28125 9.660156 -0.6875 10.644531 -2.878906 L 10.644531 0 L 12.160156 0 L 12.160156 -8.621094 C 12.160156 -12.046875 10.320312 -14.320312 6.808594 -14.320312 C 4.605469 -14.320312 2.90625 -13.367188 1.671875 -11.640625 L 2.933594 -10.644531 C 3.621094 -11.585938 4.859375 -12.792969 6.964844 -12.792969 C 9.6875 -12.792969 10.585938 -10.785156 10.585938 -7.933594 L 7.46875 -7.933594 C 3.273438 -7.933594 1.152344 -6.558594 1.152344 -3.792969 C 1.152344 -1.234375 2.992188 0.28125 5.574219 0.28125 Z M 5.757812 -1.207031 C 4.253906 -1.207031 2.992188 -1.894531 2.992188 -3.761719 C 2.992188 -5.871094 4.605469 -6.558594 7.679688 -6.558594 L 10.585938 -6.558594 C 10.585938 -4.171875 8.859375 -1.207031 5.757812 -1.207031 Z M 5.757812 -1.207031 "/></g></g></g><g fill="rgb(0%, 0%, 0%)" fill-opacity="1"><g transform="translate(781.889074, 523.810616)"><g><path d="M 5.785156 0 L 7.386719 0 L 12.484375 -14.027344 L 10.613281 -14.027344 L 6.585938 -2.304688 L 2.582031 -14.027344 L 0.660156 -14.027344 Z M 5.785156 0 "/></g></g></g><g fill="rgb(0%, 0%, 0%)" fill-opacity="1"><g transform="translate(798.338568, 523.810616)"><g><path d="M 5.871094 -15.78125 L 7.597656 -15.78125 L 11.359375 -19.839844 L 8.886719 -19.839844 Z M 7.539062 0.167969 C 9.746094 0.167969 11.273438 -0.433594 12.792969 -1.921875 L 11.585938 -2.851562 C 10.460938 -1.671875 9.195312 -1.347656 7.511719 -1.347656 C 4.632812 -1.347656 3.160156 -3.734375 3.242188 -6.417969 L 13.058594 -6.417969 C 13.085938 -6.667969 13.113281 -7.105469 13.113281 -7.414062 C 13.113281 -10.671875 11.765625 -14.210938 7.300781 -14.210938 C 3.398438 -14.210938 1.402344 -10.726562 1.402344 -6.9375 C 1.402344 -3.101562 3.398438 0.167969 7.539062 0.167969 Z M 3.242188 -7.933594 C 3.3125 -10.460938 4.605469 -12.761719 7.300781 -12.761719 C 10.460938 -12.761719 11.445312 -10.234375 11.445312 -7.933594 Z M 3.242188 -7.933594 "/></g></g></g><g fill="rgb(0%, 0%, 0%)" fill-opacity="1"><g transform="translate(816.107935, 523.810616)"><g><path d="M 6.234375 0.28125 C 8.621094 0.28125 10.894531 -1.09375 10.894531 -3.917969 C 10.894531 -9.054688 3.214844 -7.246094 3.214844 -10.753906 C 3.214844 -12.019531 4.226562 -12.890625 5.839844 -12.890625 C 7.328125 -12.890625 8.425781 -12.160156 9.054688 -10.839844 L 10.320312 -11.585938 C 9.519531 -13.199219 7.988281 -14.320312 5.898438 -14.320312 C 3.59375 -14.320312 1.644531 -12.972656 1.644531 -10.558594 C 1.644531 -5.839844 9.195312 -7.765625 9.195312 -3.621094 C 9.195312 -1.921875 7.90625 -1.152344 6.332031 -1.152344 C 4.421875 -1.152344 3.214844 -2.304688 2.710938 -3.917969 L 1.179688 -3.074219 C 1.8125 -1.292969 3.679688 0.28125 6.234375 0.28125 Z M 6.234375 0.28125 "/></g></g></g><g fill="rgb(0%, 0%, 0%)" fill-opacity="1"><g transform="translate(565.286162, 554.844974)"><g><path d="M 11.472656 -19.839844 L 11.472656 -11.992188 C 10.558594 -13.367188 9.167969 -14.320312 6.992188 -14.320312 C 3.480469 -14.320312 1.460938 -11.066406 1.460938 -7.019531 C 1.460938 -2.992188 3.480469 0.28125 6.992188 0.28125 C 9.253906 0.28125 10.546875 -0.730469 11.472656 -2.050781 L 11.472656 0 L 13.226562 0 L 13.226562 -19.839844 Z M 7.441406 -1.152344 C 4.519531 -1.152344 3.273438 -4.03125 3.273438 -7.019531 C 3.273438 -9.984375 4.519531 -12.890625 7.441406 -12.890625 C 10.433594 -12.890625 11.613281 -9.984375 11.613281 -7.019531 C 11.613281 -4.03125 10.433594 -1.152344 7.441406 -1.152344 Z M 7.441406 -1.152344 "/></g></g></g><g fill="rgb(0%, 0%, 0%)" fill-opacity="1"><g transform="translate(584.291141, 554.844974)"><g><path d="M 5.574219 0.28125 C 7.652344 0.28125 9.660156 -0.6875 10.644531 -2.878906 L 10.644531 0 L 12.160156 0 L 12.160156 -8.621094 C 12.160156 -12.046875 10.320312 -14.320312 6.808594 -14.320312 C 4.605469 -14.320312 2.90625 -13.367188 1.671875 -11.640625 L 2.933594 -10.644531 C 3.621094 -11.585938 4.859375 -12.792969 6.964844 -12.792969 C 9.6875 -12.792969 10.585938 -10.785156 10.585938 -7.933594 L 7.46875 -7.933594 C 3.273438 -7.933594 1.152344 -6.558594 1.152344 -3.792969 C 1.152344 -1.234375 2.992188 0.28125 5.574219 0.28125 Z M 5.757812 -1.207031 C 4.253906 -1.207031 2.992188 -1.894531 2.992188 -3.761719 C 2.992188 -5.871094 4.605469 -6.558594 7.679688 -6.558594 L 10.585938 -6.558594 C 10.585938 -4.171875 8.859375 -1.207031 5.757812 -1.207031 Z M 5.757812 -1.207031 "/></g></g></g><g fill="rgb(0%, 0%, 0%)" fill-opacity="1"><g transform="translate(601.855834, 554.844974)"><g/></g></g><g fill="rgb(0%, 0%, 0%)" fill-opacity="1"><g transform="translate(612.7591, 554.844974)"><g><path d="M 7.597656 0.195312 C 9.84375 0.195312 11.445312 -0.449219 12.960938 -1.992188 L 11.527344 -3.144531 C 10.433594 -1.980469 9.195312 -1.644531 7.582031 -1.644531 C 4.84375 -1.644531 3.46875 -3.804688 3.480469 -6.304688 L 13.253906 -6.304688 C 13.28125 -6.558594 13.324219 -7.019531 13.324219 -7.386719 C 13.324219 -10.613281 11.921875 -14.222656 7.371094 -14.222656 C 3.300781 -14.222656 1.277344 -10.699219 1.277344 -6.9375 C 1.277344 -3.117188 3.328125 0.195312 7.597656 0.195312 Z M 3.480469 -8.015625 C 3.59375 -10.40625 4.800781 -12.496094 7.371094 -12.496094 C 10.25 -12.496094 11.261719 -10.265625 11.316406 -8.015625 Z M 3.480469 -8.015625 "/></g></g></g><g fill="rgb(0%, 0%, 0%)" fill-opacity="1"><g transform="translate(630.640793, 554.844974)"><g><path d="M 11.359375 -19.839844 L 11.359375 -12.117188 C 10.433594 -13.464844 9.015625 -14.320312 6.964844 -14.320312 C 3.382812 -14.320312 1.347656 -11.035156 1.347656 -7.019531 C 1.347656 -3.019531 3.382812 0.28125 6.980469 0.28125 C 9.097656 0.28125 10.445312 -0.617188 11.375 -1.953125 L 11.414062 0 L 13.453125 0 L 13.453125 -19.839844 Z M 7.511719 -1.488281 C 4.703125 -1.488281 3.496094 -4.15625 3.496094 -7.019531 C 3.496094 -9.855469 4.703125 -12.554688 7.511719 -12.554688 C 10.375 -12.554688 11.527344 -9.855469 11.527344 -7.019531 C 11.527344 -4.140625 10.375 -1.488281 7.511719 -1.488281 Z M 7.511719 -1.488281 "/></g></g></g><g fill="rgb(0%, 0%, 0%)" fill-opacity="1"><g transform="translate(649.800232, 554.844974)"><g><path d="M 6.824219 0.308594 C 9.042969 0.308594 10.671875 -1.164062 11.234375 -2.371094 L 11.234375 0 L 13.3125 0 L 13.3125 -14.027344 L 11.234375 -14.027344 L 11.234375 -6.261719 C 11.234375 -3.511719 9.296875 -1.460938 7.046875 -1.460938 C 4.648438 -1.460938 4.101562 -3.722656 4.101562 -5.742188 L 4.101562 -14.027344 L 2.007812 -14.027344 L 2.007812 -5.882812 C 2.007812 -2.386719 3.371094 0.308594 6.824219 0.308594 Z M 6.824219 0.308594 "/></g></g></g><g fill="rgb(0%, 0%, 0%)" fill-opacity="1"><g transform="translate(668.791175, 554.844974)"><g><path d="M 7.386719 0.28125 C 9.925781 0.28125 11.835938 -1.109375 12.664062 -3.441406 L 10.839844 -4.226562 C 10.417969 -2.570312 9.054688 -1.488281 7.359375 -1.488281 C 4.421875 -1.488281 3.441406 -4.421875 3.441406 -6.992188 C 3.441406 -9.519531 4.449219 -12.554688 7.359375 -12.554688 C 9.042969 -12.554688 10.417969 -11.445312 10.839844 -9.746094 L 12.820312 -10.585938 C 11.835938 -12.902344 9.898438 -14.320312 7.359375 -14.320312 C 3.3125 -14.320312 1.292969 -10.753906 1.292969 -6.992188 C 1.292969 -3.1875 3.34375 0.28125 7.386719 0.28125 Z M 7.386719 0.28125 "/></g></g></g><g fill="rgb(0%, 0%, 0%)" fill-opacity="1"><g transform="translate(685.774235, 554.844974)"><g><path d="M 5.628906 0.28125 C 7.625 0.28125 9.535156 -0.605469 10.558594 -2.710938 L 10.601562 0 L 12.382812 0 L 12.382812 -8.605469 C 12.382812 -12.019531 10.460938 -14.320312 6.894531 -14.320312 C 4.578125 -14.320312 2.863281 -13.3125 1.601562 -11.570312 L 3.132812 -10.375 C 3.804688 -11.34375 5.011719 -12.496094 7.019531 -12.496094 C 9.5625 -12.496094 10.460938 -10.65625 10.460938 -8.015625 L 7.257812 -8.015625 C 3.273438 -8.015625 1.082031 -6.710938 1.082031 -3.902344 C 1.082031 -1.265625 2.992188 0.28125 5.628906 0.28125 Z M 5.871094 -1.488281 C 4.410156 -1.488281 3.242188 -2.175781 3.242188 -3.847656 C 3.242188 -5.714844 4.675781 -6.429688 7.457031 -6.429688 L 10.460938 -6.429688 C 10.460938 -4.171875 8.746094 -1.488281 5.871094 -1.488281 Z M 5.871094 -1.488281 "/></g></g></g><g fill="rgb(0%, 0%, 0%)" fill-opacity="1"><g transform="translate(703.473401, 554.844974)"><g><path d="M 7.359375 -1.488281 C 4.421875 -1.488281 3.441406 -4.421875 3.441406 -6.992188 C 3.441406 -9.519531 4.449219 -12.554688 7.359375 -12.554688 C 9.042969 -12.554688 10.417969 -11.445312 10.839844 -9.746094 L 12.820312 -10.585938 C 11.835938 -12.902344 9.898438 -14.320312 7.359375 -14.320312 C 3.3125 -14.320312 1.292969 -10.753906 1.292969 -6.992188 C 1.292969 -3.46875 3.046875 -0.238281 6.515625 0.226562 L 5.25 2.527344 L 5.839844 2.527344 C 7.636719 2.527344 8.453125 3.410156 8.453125 4.28125 C 8.453125 5.011719 7.933594 5.628906 7.078125 5.628906 C 6.417969 5.628906 5.925781 5.140625 5.828125 4.621094 L 4.4375 5.335938 C 4.816406 6.289062 5.800781 7.078125 6.992188 7.078125 C 8.859375 7.078125 9.96875 5.628906 9.96875 4.171875 C 9.96875 2.863281 9.125 1.714844 7.359375 1.644531 L 8.171875 0.238281 C 10.320312 -0.0273438 11.921875 -1.363281 12.664062 -3.441406 L 10.839844 -4.226562 C 10.417969 -2.570312 9.054688 -1.488281 7.359375 -1.488281 Z M 7.359375 -1.488281 "/></g></g></g><g fill="rgb(0%, 0%, 0%)" fill-opacity="1"><g transform="translate(720.456466, 554.844974)"><g><path d="M 8.746094 -16.089844 C 10.347656 -16.089844 11.261719 -17.398438 11.261719 -19.796875 L 9.773438 -19.796875 C 9.773438 -18.492188 9.492188 -17.648438 8.777344 -17.648438 C 7.652344 -17.648438 7.21875 -19.882812 5.167969 -19.882812 C 3.621094 -19.882812 2.792969 -18.449219 2.792969 -16.371094 L 4.199219 -16.371094 C 4.199219 -17.425781 4.449219 -18.296875 5.167969 -18.296875 C 6.304688 -18.296875 6.824219 -16.089844 8.746094 -16.089844 Z M 5.628906 0.28125 C 7.625 0.28125 9.535156 -0.605469 10.558594 -2.710938 L 10.601562 0 L 12.382812 0 L 12.382812 -8.605469 C 12.382812 -12.019531 10.460938 -14.320312 6.894531 -14.320312 C 4.578125 -14.320312 2.863281 -13.3125 1.601562 -11.570312 L 3.132812 -10.375 C 3.804688 -11.34375 5.011719 -12.496094 7.019531 -12.496094 C 9.5625 -12.496094 10.460938 -10.65625 10.460938 -8.015625 L 7.257812 -8.015625 C 3.273438 -8.015625 1.082031 -6.710938 1.082031 -3.902344 C 1.082031 -1.265625 2.992188 0.28125 5.628906 0.28125 Z M 5.871094 -1.488281 C 4.410156 -1.488281 3.242188 -2.175781 3.242188 -3.847656 C 3.242188 -5.714844 4.675781 -6.429688 7.457031 -6.429688 L 10.460938 -6.429688 C 10.460938 -4.171875 8.746094 -1.488281 5.871094 -1.488281 Z M 5.871094 -1.488281 "/></g></g></g><g fill="rgb(0%, 0%, 0%)" fill-opacity="1"><g transform="translate(738.155632, 554.844974)"><g><path d="M 7.820312 0.28125 C 11.765625 0.28125 14.503906 -3.046875 14.503906 -7.046875 C 14.503906 -11.035156 11.765625 -14.320312 7.820312 -14.320312 C 3.863281 -14.320312 1.207031 -11.035156 1.207031 -7.046875 C 1.207031 -3.046875 3.863281 0.28125 7.820312 0.28125 Z M 7.835938 -1.460938 C 4.746094 -1.460938 3.3125 -4.210938 3.3125 -7.046875 C 3.3125 -9.855469 4.746094 -12.582031 7.863281 -12.582031 C 10.980469 -12.582031 12.382812 -9.855469 12.382812 -7.046875 C 12.382812 -4.269531 10.980469 -1.460938 7.835938 -1.460938 Z M 7.835938 -1.460938 "/></g></g></g><g fill="rgb(0%, 0%, 0%)" fill-opacity="1"><g transform="translate(757.174652, 554.844974)"><g/></g></g><g fill="rgb(0%, 0%, 0%)" fill-opacity="1"><g transform="translate(768.077913, 554.844974)"><g><path d="M 11.359375 -19.839844 L 11.359375 -12.117188 C 10.433594 -13.464844 9.015625 -14.320312 6.964844 -14.320312 C 3.382812 -14.320312 1.347656 -11.035156 1.347656 -7.019531 C 1.347656 -3.019531 3.382812 0.28125 6.980469 0.28125 C 9.097656 0.28125 10.445312 -0.617188 11.375 -1.953125 L 11.414062 0 L 13.453125 0 L 13.453125 -19.839844 Z M 7.511719 -1.488281 C 4.703125 -1.488281 3.496094 -4.15625 3.496094 -7.019531 C 3.496094 -9.855469 4.703125 -12.554688 7.511719 -12.554688 C 10.375 -12.554688 11.527344 -9.855469 11.527344 -7.019531 C 11.527344 -4.140625 10.375 -1.488281 7.511719 -1.488281 Z M 7.511719 -1.488281 "/></g></g></g><g fill="rgb(0%, 0%, 0%)" fill-opacity="1"><g transform="translate(787.237345, 554.844974)"><g><path d="M 2.234375 -17.144531 L 4.621094 -17.144531 L 4.621094 -19.839844 L 2.234375 -19.839844 Z M 2.386719 0 L 4.464844 0 L 4.464844 -14.027344 L 2.386719 -14.027344 Z M 2.386719 0 "/></g></g></g><g fill="rgb(0%, 0%, 0%)" fill-opacity="1"><g transform="translate(797.396423, 554.844974)"><g><path d="M 7.398438 -1.8125 C 5.40625 -2.09375 3.652344 -2.511719 3.652344 -3.960938 C 3.652344 -4.421875 3.890625 -4.761719 4.253906 -5.039062 C 5.027344 -4.660156 5.925781 -4.449219 6.894531 -4.449219 C 9.800781 -4.449219 12.074219 -6.261719 12.074219 -9.28125 C 12.074219 -10.109375 11.894531 -10.882812 11.554688 -11.554688 L 13.816406 -13.339844 L 12.625 -14.828125 L 10.515625 -12.917969 C 9.617188 -13.730469 8.355469 -14.222656 6.894531 -14.222656 C 3.945312 -14.222656 1.644531 -12.285156 1.644531 -9.308594 C 1.644531 -8.015625 2.078125 -6.9375 2.824219 -6.109375 C 2.023438 -5.421875 1.796875 -4.605469 1.796875 -3.792969 C 1.796875 -2.359375 2.542969 -1.488281 3.582031 -0.914062 L 1.558594 1.125 C 1.53125 1.320312 1.515625 1.488281 1.515625 1.65625 C 1.515625 4.324219 3.917969 6.429688 7.566406 6.429688 C 10.515625 6.429688 13.183594 5.054688 13.183594 2.164062 C 13.183594 -1.011719 10.25 -1.433594 7.398438 -1.8125 Z M 6.867188 -12.566406 C 8.777344 -12.566406 9.96875 -11.121094 9.96875 -9.351562 C 9.96875 -7.457031 8.761719 -6.191406 6.867188 -6.191406 C 4.96875 -6.191406 3.777344 -7.457031 3.777344 -9.351562 C 3.777344 -11.066406 4.957031 -12.566406 6.867188 -12.566406 Z M 7.738281 4.578125 C 5.011719 4.578125 3.46875 3.144531 3.453125 1.699219 L 5.109375 -0.324219 C 5.660156 -0.15625 6.234375 -0.0546875 6.78125 0.0429688 C 9.183594 0.449219 11.316406 0.519531 11.316406 2.316406 C 11.316406 3.847656 9.589844 4.578125 7.738281 4.578125 Z M 7.738281 4.578125 "/></g></g></g><g fill="rgb(0%, 0%, 0%)" fill-opacity="1"><g transform="translate(815.081535, 554.844974)"><g><path d="M 2.234375 -17.144531 L 4.621094 -17.144531 L 4.621094 -19.839844 L 2.234375 -19.839844 Z M 2.386719 0 L 4.464844 0 L 4.464844 -14.027344 L 2.386719 -14.027344 Z M 2.386719 0 "/></g></g></g><g fill="rgb(0%, 0%, 0%)" fill-opacity="1"><g transform="translate(825.240613, 554.844974)"><g><path d="M 6.261719 0.28125 C 7.117188 0.28125 7.835938 0.125 8.144531 0 L 8.144531 -1.796875 C 7.707031 -1.585938 7.203125 -1.445312 6.738281 -1.445312 C 5.714844 -1.445312 4.957031 -2.164062 4.957031 -3.707031 L 4.957031 -12.3125 L 8.507812 -12.3125 L 8.507812 -14.027344 L 4.957031 -14.027344 L 4.957031 -19.152344 L 2.878906 -17.1875 L 2.878906 -14.027344 L 0.617188 -14.027344 L 0.617188 -12.3125 L 2.863281 -12.3125 L 2.863281 -3.722656 C 2.863281 -1.320312 3.777344 0.28125 6.261719 0.28125 Z M 6.261719 0.28125 "/></g></g></g><g fill="rgb(0%, 0%, 0%)" fill-opacity="1"><g transform="translate(837.9973, 554.844974)"><g><path d="M 5.628906 0.28125 C 7.625 0.28125 9.535156 -0.605469 10.558594 -2.710938 L 10.601562 0 L 12.382812 0 L 12.382812 -8.605469 C 12.382812 -12.019531 10.460938 -14.320312 6.894531 -14.320312 C 4.578125 -14.320312 2.863281 -13.3125 1.601562 -11.570312 L 3.132812 -10.375 C 3.804688 -11.34375 5.011719 -12.496094 7.019531 -12.496094 C 9.5625 -12.496094 10.460938 -10.65625 10.460938 -8.015625 L 7.257812 -8.015625 C 3.273438 -8.015625 1.082031 -6.710938 1.082031 -3.902344 C 1.082031 -1.265625 2.992188 0.28125 5.628906 0.28125 Z M 5.871094 -1.488281 C 4.410156 -1.488281 3.242188 -2.175781 3.242188 -3.847656 C 3.242188 -5.714844 4.675781 -6.429688 7.457031 -6.429688 L 10.460938 -6.429688 C 10.460938 -4.171875 8.746094 -1.488281 5.871094 -1.488281 Z M 5.871094 -1.488281 "/></g></g></g><g fill="rgb(0%, 0%, 0%)" fill-opacity="1"><g transform="translate(855.696457, 554.844974)"><g><path d="M 5.125 -1.542969 C 4.492188 -1.542969 4.4375 -2.304688 4.4375 -2.34375 L 4.4375 -19.839844 L 2.316406 -19.839844 L 2.316406 -2.835938 C 2.316406 -1.152344 2.472656 0.28125 4.589844 0.28125 C 5.308594 0.28125 6.039062 0.140625 6.488281 0 L 6.488281 -1.683594 C 6.179688 -1.628906 5.617188 -1.542969 5.125 -1.542969 Z M 5.125 -1.542969 "/></g></g></g><g fill="rgb(0%, 0%, 0%)" fill-opacity="1"><g transform="translate(866.276778, 554.844974)"><g><path d="M 3.257812 0 L 6.039062 0 L 6.039062 -2.722656 L 3.257812 -2.722656 Z M 3.257812 0 "/></g></g></g></svg>