<?xml version="1.0" encoding="UTF-8"?>
<svg xmlns="http://www.w3.org/2000/svg" xmlns:xlink="http://www.w3.org/1999/xlink" viewBox="0 0 24 24" width="24px" height="24px">
<g id="surface29223022">
<path style=" stroke:none;fill-rule:nonzero;fill:rgb(100%,100%,100%);fill-opacity:1;" d="M 12.011719 2 C 6.503906 2 2.023438 6.476562 2.023438 11.984375 C 2.019531 13.746094 2.480469 15.460938 3.355469 16.976562 L 2 22 L 7.234375 20.765625 C 8.691406 21.558594 10.332031 21.976562 12.003906 21.980469 L 12.011719 21.980469 C 17.515625 21.980469 21.996094 17.5 22 11.996094 C 22 9.324219 20.960938 6.816406 19.078125 4.929688 C 17.191406 3.039062 14.683594 2 12.011719 2 Z M 12.011719 4 C 14.144531 4 16.152344 4.832031 17.660156 6.34375 C 19.171875 7.851562 20 9.859375 20 11.992188 C 19.996094 16.394531 16.414062 19.980469 12.007812 19.980469 C 10.675781 19.976562 9.355469 19.644531 8.191406 19.007812 L 7.519531 18.640625 L 6.773438 18.816406 L 4.804688 19.28125 L 5.285156 17.496094 L 5.503906 16.695312 L 5.089844 15.976562 C 4.390625 14.769531 4.019531 13.386719 4.023438 11.984375 C 4.023438 7.582031 7.605469 4 12.011719 4 Z M 8.476562 7.375 C 8.308594 7.375 8.039062 7.4375 7.8125 7.6875 C 7.582031 7.9375 6.9375 8.539062 6.9375 9.769531 C 6.9375 10.996094 7.832031 12.183594 7.957031 12.347656 C 8.078125 12.515625 9.683594 15.113281 12.21875 16.113281 C 14.328125 16.945312 14.753906 16.78125 15.214844 16.742188 C 15.671875 16.699219 16.691406 16.136719 16.898438 15.554688 C 17.105469 14.972656 17.105469 14.46875 17.046875 14.367188 C 16.984375 14.261719 16.816406 14.203125 16.566406 14.078125 C 16.316406 13.953125 15.089844 13.347656 14.863281 13.265625 C 14.632812 13.183594 14.464844 13.140625 14.300781 13.390625 C 14.132812 13.640625 13.65625 14.203125 13.511719 14.367188 C 13.363281 14.535156 13.21875 14.558594 12.96875 14.433594 C 12.71875 14.304688 11.914062 14.042969 10.960938 13.191406 C 10.21875 12.53125 9.71875 11.714844 9.574219 11.464844 C 9.425781 11.214844 9.558594 11.078125 9.683594 10.957031 C 9.796875 10.84375 9.933594 10.664062 10.058594 10.519531 C 10.179688 10.371094 10.222656 10.265625 10.308594 10.101562 C 10.390625 9.9375 10.347656 9.789062 10.285156 9.664062 C 10.222656 9.539062 9.738281 8.304688 9.515625 7.8125 C 9.328125 7.398438 9.132812 7.386719 8.953125 7.382812 C 8.808594 7.375 8.640625 7.375 8.476562 7.375 Z M 8.476562 7.375 "/>
</g>
</svg>
